<svg width="124" height="124" viewBox="0 0 124 124" fill="none" xmlns="http://www.w3.org/2000/svg">
<rect width="124" height="124" rx="62" fill="#2E2E2E"/>
<path d="M34.144 34H25.144L34.144 25V34Z" fill="#48C8B9"/>
<path d="M42.144 25H51.144V34H42.144V25Z" fill="#C84897"/>
<path d="M25.144 42H34.144V51H25.144V42Z" fill="#C84897"/>
<path d="M42.144 42H51.144L42.144 51V42Z" fill="#48C8B9"/>
<path fill-rule="evenodd" clip-rule="evenodd" d="M25.0004 62C25.0001 62.0639 25 62.1279 25 62.192C25 67.504 25.928 72.432 27.784 76.976C29.64 81.456 32.2 85.36 35.464 88.688C38.792 92.016 42.664 94.608 47.08 96.464C51.496 98.256 56.232 99.152 61.288 99.152C66.408 99.152 71.144 98.256 75.496 96.464C79.912 94.608 83.752 92.016 87.016 88.688C90.344 85.36 92.936 81.456 94.792 76.976C96.712 72.432 97.672 67.504 97.672 62.192C97.672 56.816 96.712 51.888 94.792 47.408C92.936 42.928 90.344 39.056 87.016 35.792C83.752 32.464 79.912 29.904 75.496 28.112C71.144 26.256 66.408 25.328 61.288 25.328C61.24 25.328 61.192 25.3281 61.144 25.3282V34.0643C61.192 34.0641 61.24 34.064 61.288 34.064C65.256 34.064 68.872 34.8 72.136 36.272C75.4 37.68 78.216 39.696 80.584 42.32C83.016 44.88 84.872 47.856 86.152 51.248C87.496 54.64 88.168 58.288 88.168 62.192C88.168 66.096 87.496 69.776 86.152 73.232C84.872 76.624 83.016 79.632 80.584 82.256C78.216 84.816 75.4 86.832 72.136 88.304C68.872 89.712 65.256 90.416 61.288 90.416C57.384 90.416 53.8 89.712 50.536 88.304C47.272 86.832 44.424 84.816 41.992 82.256C39.624 79.632 37.768 76.624 36.424 73.232C35.08 69.776 34.408 66.096 34.408 62.192C34.408 62.1279 34.4082 62.0639 34.4085 62H25.0004Z" fill="#C87948"/>
</svg>
